<svg height="700pt" preserveAspectRatio="xMidYMid meet" viewBox="0 0 700 700" width="700pt" xmlns="http://www.w3.org/2000/svg"><g transform="matrix(.1 0 0 -.1 0 700)"><path d="m0 3500v-3500h3500 3500v3500 3500h-3500-3500zm5910 2130v-210h-2415-2415v210 210h2415 2415zm100-1465 100 100 22-23 23-22-122-123-122-122-6-965-7-965 171-170 171-170 99 99 99 99 25-20 25-20-349-349-349-349-275 275c-165 165-278 271-283 265s-31-39-59-75c-219-281-554-434-943-433-220 1-406 45-594 140-123 62-196 113-291 204l-81 78-73-75c-352-361-943-450-1434-215-218 104-388 259-533 486-146 229-176 510-83 787 119 360 452 773 988 1226l130 110-77 7c-136 11-223 26-395 66-93 22-206 43-252 46-207 15-329-58-310-183 11-74 56-110 210-170 57-22 58-23 25-23-52-1-162 25-207 47-99 51-153 146-161 282-8 149 29 253 127 350 105 105 262 160 456 160 138 0 225-15 498-84 253-65 336-75 426-52 83 21 170 66 249 127l62 49v-1143-1144l-122-109c-68-60-211-188-318-284l-195-175-5 1084-5 1083-106-105c-441-436-616-917-498-1371 31-119 125-305 204-403 128-160 325-285 530-339 134-35 356-44 490-20 84 16 254 66 282 84 9 6 3 23-24 62-164 243-197 531-97 832 53 161 177 371 334 568 107 134 476 502 646 645l132 110-92 7c-118 9-184 21-391 68-93 21-201 42-240 45-123 12-255-25-291-80-46-70-18-172 58-215 24-13 74-37 113-53l70-28-70 5c-211 14-325 139-325 355 0 186 87 324 254 406 91 44 168 64 283 72 127 8 236-8 513-79 286-72 380-82 486-50 79 24 176 79 240 135l44 39v-281c0-155 2-281 5-281s134 131 292 291l287 290 258-258 258-258z"/><path d="m4882 3957-72-72-1-810v-810l-317-281-317-281-3 1078c-1 594-6 1079-10 1079-11 0-222-216-281-288-444-545-472-1196-70-1636 224-246 591-365 952-311 121 18 285 72 389 127l78 42v986 985l-133 133c-73 72-135 132-137 132-3 0-38-33-78-73z"/></g></svg>